<svg xmlns="http://www.w3.org/2000/svg" viewBox="0 0 800 200" width="100%" height="100%">
  <!-- Transparent Background Minimal Lockup -->
  <!-- LOGO MARK -->
  <g transform="translate(68, 12)">
    <!-- OUTER CHASSIS -->
    <path d="M 52,14 L 120,14 L 160,54 L 160,122 L 120,162 L 52,162 L 12,122 L 12,54 Z" 
          fill="none" 
          stroke="#FFFFFF" 
          stroke-width="5" 
          stroke-linejoin="miter"/>

    <path d="M 56,22 L 116,22 L 152,58 L 152,118 L 116,154 L 56,154 L 20,118 L 20,58 Z" 
          fill="none" 
          stroke="#FFFFFF" 
          stroke-opacity="0.3"
          stroke-width="1.5"/>

    <!-- Fasteners -->
    <circle cx="52" cy="14" r="3" fill="#FFFFFF"/>
    <circle cx="120" cy="14" r="3" fill="#FFFFFF"/>
    <circle cx="160" cy="54" r="3" fill="#FFFFFF"/>
    <circle cx="160" cy="122" r="3" fill="#FFFFFF"/>
    <circle cx="120" cy="162" r="3" fill="#FFFFFF"/>
    <circle cx="52" cy="162" r="3" fill="#FFFFFF"/>
    <circle cx="12" cy="122" r="3" fill="#FFFFFF"/>
    <circle cx="12" cy="54" r="3" fill="#FFFFFF"/>

    <!-- INNER STENCIL 'R' -->
    <path d="M 40,42 L 64,42 L 64,134 L 48,134 L 40,126 Z" fill="#FFFFFF"/>

    <path d="M 72,42 L 116,42 L 136,62 L 136,74 L 116,94 L 72,94 Z M 93,60 L 72,60 L 72,76 L 93,76 L 110,76 L 116,70 L 116,66 L 110,60 Z" 
          fill="#FFFFFF"/>

    <!-- Kick Leg -->
    <polygon points="72,94 97,94 133,134 105,134 82,109 72,109" fill="#FFFFFF"/>

    <rect x="122" y="38" width="10" height="3" fill="#FFFFFF"/>
    <circle cx="132" cy="94" r="2.5" fill="#FFFFFF"/>
  </g>

  <!-- TYPOGRAPHY: ROVIN -->
  <g transform="translate(268, 110)">
    <text font-family="'Orbitron', 'Inter', -apple-system, sans-serif" 
          font-size="76" 
          font-weight="900" 
          letter-spacing="13" 
          fill="#FFFFFF">
      ROVIN
    </text>

    <text y="42" 
          font-family="'Inter', -apple-system, sans-serif" 
          font-size="12" 
          font-weight="700" 
          letter-spacing="8" 
          fill="#94A3B8">
      PRECISION RC &bull; TECH NOVELTIES &bull; DECOR
    </text>

    <rect x="0" y="56" width="52" height="3" fill="#FFFFFF"/>
    <rect x="58" y="56" width="16" height="3" fill="#FFFFFF" fill-opacity="0.4"/>
  </g>
</svg>
